<svg xmlns="http://www.w3.org/2000/svg" width="225" height="414" viewBox="0 0 225 414">
  <defs>
    <style>
      .cls-1 {
        fill: #fff;
        fill-rule: evenodd;
      }
    </style>
  </defs>
  <path id="矩形_2_拷贝_13" data-name="矩形 2 拷贝 13" class="cls-1" d="M1,0H51a2,2,0,0,1,2,2V4a2,2,0,0,1-2,2H1A2,2,0,0,1-1,4V2A2,2,0,0,1,1,0ZM1,34H24a2,2,0,0,1,2,2v2a2,2,0,0,1-2,2H1a2,2,0,0,1-2-2V36A2,2,0,0,1,1,34ZM1,68H24a2,2,0,0,1,2,2v2a2,2,0,0,1-2,2H1a2,2,0,0,1-2-2V70A2,2,0,0,1,1,68Zm0,34H51a2,2,0,0,1,2,2v2a2,2,0,0,1-2,2H1a2,2,0,0,1-2-2v-2A2,2,0,0,1,1,102Zm0,34H24a2,2,0,0,1,2,2v2a2,2,0,0,1-2,2H1a2,2,0,0,1-2-2v-2A2,2,0,0,1,1,136Zm0,34H24a2,2,0,0,1,2,2v2a2,2,0,0,1-2,2H1a2,2,0,0,1-2-2v-2A2,2,0,0,1,1,170Zm0,34H51a2,2,0,0,1,2,2v2a2,2,0,0,1-2,2H1a2,2,0,0,1-2-2v-2A2,2,0,0,1,1,204Zm0,34H24a2,2,0,0,1,2,2v2a2,2,0,0,1-2,2H1a2,2,0,0,1-2-2v-2A2,2,0,0,1,1,238Zm0,34H24a2,2,0,0,1,2,2v2a2,2,0,0,1-2,2H1a2,2,0,0,1-2-2v-2A2,2,0,0,1,1,272Zm0,34H51a2,2,0,0,1,2,2v2a2,2,0,0,1-2,2H1a2,2,0,0,1-2-2v-2A2,2,0,0,1,1,306Zm0,34H24a2,2,0,0,1,2,2v2a2,2,0,0,1-2,2H1a2,2,0,0,1-2-2v-2A2,2,0,0,1,1,340Zm0,34H24a2,2,0,0,1,2,2v2a2,2,0,0,1-2,2H1a2,2,0,0,1-2-2v-2A2,2,0,0,1,1,374Zm0,34H51a2,2,0,0,1,2,2v2a2,2,0,0,1-2,2H1a2,2,0,0,1-2-2v-2A2,2,0,0,1,1,408ZM174,0h50a2,2,0,0,1,2,2V4a2,2,0,0,1-2,2H174a2,2,0,0,1-2-2V2A2,2,0,0,1,174,0Zm27,34h23a2,2,0,0,1,2,2v2a2,2,0,0,1-2,2H201a2,2,0,0,1-2-2V36A2,2,0,0,1,201,34Zm0,34h23a2,2,0,0,1,2,2v2a2,2,0,0,1-2,2H201a2,2,0,0,1-2-2V70A2,2,0,0,1,201,68Zm-27,34h50a2,2,0,0,1,2,2v2a2,2,0,0,1-2,2H174a2,2,0,0,1-2-2v-2A2,2,0,0,1,174,102Zm27,34h23a2,2,0,0,1,2,2v2a2,2,0,0,1-2,2H201a2,2,0,0,1-2-2v-2A2,2,0,0,1,201,136Zm0,34h23a2,2,0,0,1,2,2v2a2,2,0,0,1-2,2H201a2,2,0,0,1-2-2v-2A2,2,0,0,1,201,170Zm-27,34h50a2,2,0,0,1,2,2v2a2,2,0,0,1-2,2H174a2,2,0,0,1-2-2v-2A2,2,0,0,1,174,204Zm27,34h23a2,2,0,0,1,2,2v2a2,2,0,0,1-2,2H201a2,2,0,0,1-2-2v-2A2,2,0,0,1,201,238Zm0,34h23a2,2,0,0,1,2,2v2a2,2,0,0,1-2,2H201a2,2,0,0,1-2-2v-2A2,2,0,0,1,201,272Zm-27,34h50a2,2,0,0,1,2,2v2a2,2,0,0,1-2,2H174a2,2,0,0,1-2-2v-2A2,2,0,0,1,174,306Zm27,34h23a2,2,0,0,1,2,2v2a2,2,0,0,1-2,2H201a2,2,0,0,1-2-2v-2A2,2,0,0,1,201,340Zm0,34h23a2,2,0,0,1,2,2v2a2,2,0,0,1-2,2H201a2,2,0,0,1-2-2v-2A2,2,0,0,1,201,374Zm-27,34h50a2,2,0,0,1,2,2v2a2,2,0,0,1-2,2H174a2,2,0,0,1-2-2v-2A2,2,0,0,1,174,408Z"/>
</svg>
